#!OML:ASF H:\Terrain\Walking\May29\JustinRory\Justin.ASF
:FULLY-SPECIFIED
:DEGREES
705
root 16.8184 9.85897 -6.64435 -116.957 -87.016 94.9916
lowerback 43.012 3.2686 -1.78834
upperback 17.8844 0.339752 1.08593
thorax -0.33939 -1.28386 1.94456
lowerneck -12.2513 1.37844 -10.0172
upperneck 22.5403 3.78691 -0.313416
head 8.94709 0.745187 1.95897
rclavicle 1.80894e-014 1.25234e-014
rhumerus 29.0203 31.8008 -61.1258
rradius 69.2485
rwrist 10.7928
rhand -1.75201 21.2775
rfingers 7.12502
rthumb 23.9112 -7.25378
lclavicle 1.80894e-014 1.25234e-014
lhumerus 31.938 -22.2784 76.2759
lradius 54.6953
lwrist -28.4391
lhand 20.1743 32.0426
lfingers 7.12502
lthumb 44.6974 55.6603
rfemur -67.9162 -11.8315 15.0782
rtibia 73.2432
rfoot 19.6698 -0.674544
rtoes 21.5885
lfemur -67.5358 10.0732 -15.175
ltibia 73.7602
lfoot 19.9791 -6.0315
ltoes 8.99739
706
root 16.8193 9.85922 -6.64332 -117.259 -87.1075 95.2132
lowerback 43.2028 3.24159 -1.34368
upperback 18.0021 0.436952 0.977376
thorax -0.254026 -1.21122 1.56771
lowerneck -11.9624 1.6386 -8.86776
upperneck 21.8944 3.95308 -0.701603
head 8.68618 0.918454 1.64528
rclavicle 2.98177e-015 3.18055e-015
rhumerus 28.857 31.359 -61.1385
rradius 69.5198
rwrist 10.8681
rhand -1.89955 20.9558
rfingers 7.12502
rthumb 23.7697 -7.59399
lclavicle 2.98177e-015 3.18055e-015
lhumerus 32.5005 -22.9552 75.8095
lradius 54.7039
lwrist -28.0693
lhand 19.8289 32.4766
lfingers 7.12502
lthumb 44.3757 56.218
rfemur -67.8354 -11.8484 15.1609
rtibia 73.271
rfoot 19.6414 -0.573596
rtoes 21.1841
lfemur -67.4336 10.1303 -15.1951
ltibia 73.7524
lfoot 19.6643 -6.19956
ltoes 8.21502
707
root 16.8226 9.86549 -6.63998 -117.072 -87.2094 94.8966
lowerback 43.3425 3.13978 -0.792491
upperback 18.2059 0.464525 0.717107
thorax -0.0505556 -1.16033 0.999067
lowerneck -12.464 1.8848 -8.24738
upperneck 21.768 4.15346 -0.312706
head 8.72003 1.1165 1.7037
rclavicle -5.96354e-016 7.95139e-015
rhumerus 28.6909 30.7276 -61.518
rradius 69.7998
rwrist 11.0136
rhand -1.86218 20.9883
rfingers 7.12502
rthumb 23.8056 -7.55682
lclavicle -5.96354e-016 7.95139e-015
lhumerus 33.2023 -23.6308 74.9979
lradius 54.6475
lwrist -27.8487
lhand 19.3342 32.5169
lfingers 7.12502
lthumb 43.9144 56.4316
rfemur -67.6437 -11.942 15.1962
rtibia 73.2871
rfoot 19.5526 -1.07039
rtoes 23.4048
lfemur -67.2812 10.0382 -15.0671
ltibia 73.7613
lfoot 19.484 -6.44219
ltoes 7.82876
708
root 16.8199 9.86374 -6.64122 -114.022 -87.023 91.909
lowerback 43.4097 3.24777 -0.993202
upperback 18.1907 0.522485 0.745967
thorax -0.0896745 -1.1448 1.1115
lowerneck -12.8631 2.28475 -8.28154
upperneck 22.0564 4.6544 0.200174
head 8.85091 1.39031 1.94747
rclavicle 6.55989e-015 1.68967e-014
rhumerus 28.4642 30.6333 -61.4528
rradius 70.1318
rwrist 10.8329
rhand -1.64951 21.3079
rfingers 7.12502
rthumb 24.0095 -7.21047
lclavicle 6.55989e-015 1.68967e-014
lhumerus 33.366 -23.8456 74.9005
lradius 54.6243
lwrist -27.9244
lhand 19.2758 31.4684
lfingers 7.12502
lthumb 43.8599 55.4034
rfemur -67.7747 -12.1188 14.9803
rtibia 73.3378
rfoot 19.519 -1.46685
rtoes 25.4602
lfemur -67.376 9.89204 -15.2491
ltibia 73.7988
lfoot 19.4632 -6.54172
ltoes 7.60055
709
root 16.8185 9.86024 -6.64443 -113.875 -86.9262 91.8535
lowerback 43.3426 3.33566 -1.28112
upperback 18.2519 0.516814 0.925068
thorax -0.010347 -1.186 1.44766
lowerneck -13.2852 2.70774 -8.50541
upperneck 22.187 5.28415 0.464838
head 8.92905 1.68856 2.15171
rclavicle -2.18663e-015 3.77691e-015
rhumerus 28.7292 30.8762 -61.1018
rradius 70.3152
rwrist 10.684
rhand -1.37861 21.6242
rfingers 7.12502
rthumb 24.2693 -6.85968
lclavicle -2.18663e-015 3.77691e-015
lhumerus 33.293 -23.5768 74.9517
lradius 54.9208
lwrist -27.9418
lhand 19.5802 30.4382
lfingers 7.12502
lthumb 44.1438 54.2672
rfemur -67.9429 -12.1138 14.9381
rtibia 73.3748
rfoot 19.628 -1.07193
rtoes 24.19
lfemur -67.4882 9.87024 -15.3007
ltibia 73.8327
lfoot 19.6496 -6.5292
ltoes 7.98997
710
root 16.8184 9.85441 -6.64524 -117.03 -87.0364 95.0996
lowerback 43.2953 3.45288 -1.51034
upperback 18.267 0.583519 1.33002
thorax 0.00599817 -1.20287 1.96921
lowerneck -13.6041 3.0883 -9.20345
upperneck 22.0426 5.94346 0.759442
head 8.87574 1.97953 2.43839
rclavicle 4.77083e-015 -1.07344e-014
rhumerus 28.9933 31.2537 -60.5641
rradius 70.5423
rwrist 10.7346
rhand -1.10613 21.7534
rfingers 7.12502
rthumb 24.5305 -6.69531
lclavicle 4.77083e-015 -1.07344e-014
lhumerus 32.971 -23.1837 75.4619
lradius 55.2723
lwrist -28.0613
lhand 19.721 30.1535
lfingers 7.12502
lthumb 44.275 53.933
rfemur -68.0723 -11.9545 15.1372
rtibia 73.3952
rfoot 19.7036 -0.670593
rtoes 22.6197
lfemur -67.6274 9.99158 -15.0978
ltibia 73.8699
lfoot 20.1403 -6.59157
ltoes 9.34984
711
root 16.812 9.85141 -6.64439 -116.259 -86.9343 94.4216
lowerback 43.5924 3.45462 -1.65684
upperback 17.8108 0.607068 1.47299
thorax -0.588803 -1.17184 2.19591
lowerneck -13.2109 3.6267 -9.24716
upperneck 22.1116 6.65699 0.686688
head 8.78975 2.29796 2.48388
rclavicle -5.76476e-015 -9.93923e-015
rhumerus 28.1352 31.7664 -60.6597
rradius 70.9461
rwrist 10.6673
rhand -0.727047 21.4973
rfingers 7.12502
rthumb 24.8938 -6.90165
lclavicle -5.76476e-015 -9.93923e-015
lhumerus 32.0983 -23.3421 76.4604
lradius 55.1997
lwrist -28.2055
lhand 19.644 29.9507
lfingers 7.12502
lthumb 44.2033 53.7573
rfemur -68.2069 -11.9697 15.0075
rtibia 73.4464
rfoot 19.6932 -0.53597
rtoes 22.6294
lfemur -67.718 9.99295 -15.3062
ltibia 73.8739
lfoot 20.202 -6.56235
ltoes 9.33104
712
root 16.8091 9.85985 -6.64444 -111.878 -86.5918 90.0787
lowerback 43.5071 3.60864 -1.9358
upperback 17.9818 0.668154 1.5127
thorax -0.382489 -1.17349 2.35445
lowerneck -14.3531 4.01501 -8.31674
upperneck 22.5932 7.26795 0.142069
head 9.19252 2.57006 2.26239
rclavicle -7.55382e-015 -7.55382e-015
rhumerus 28.1929 31.4454 -60.4997
rradius 71.2147
rwrist 10.4153
rhand -0.0386133 21.0999
rfingers 7.12502
rthumb 25.5534 -7.20611
lclavicle -7.55382e-015 -7.55382e-015
lhumerus 32.5259 -23.6008 76.055
lradius 55.4105
lwrist -27.7017
lhand 19.8779 29.725
lfingers 7.12502
lthumb 44.4213 53.449
rfemur -68.2473 -12.0839 14.5458
rtibia 73.4829
rfoot 19.7278 -0.400822
rtoes 22.2407
lfemur -67.6832 9.77714 -15.7243
ltibia 73.8177
lfoot 20.067 -5.88542
ltoes 11.3269
713
root 16.8053 9.8608 -6.65004 -111.421 -86.4862 89.7411
lowerback 43.4032 3.67303 -2.16515
upperback 17.9132 0.68709 1.61943
thorax -0.439295 -1.17686 2.5786
lowerneck -14.1145 4.57827 -7.98475
upperneck 22.0982 7.9658 -0.000602477
head 8.96246 2.9403 2.21569
rclavicle -3.97569e-016 1.07344e-014
rhumerus 27.9544 31.5841 -60.7111
rradius 71.3244
rwrist 10.4829
rhand 0.426887 21.1081
rfingers 7.12502
rthumb 25.9992 -7.13327
lclavicle -3.97569e-016 1.07344e-014
lhumerus 32.2953 -23.5585 76.6733
lradius 55.3279
lwrist -28.2209
lhand 19.8086 29.9456
lfingers 7.12502
lthumb 44.3568 53.6941
rfemur -68.4195 -11.9505 14.4367
rtibia 73.5346
rfoot 19.7302 -0.913789
rtoes 23.2189
lfemur -67.79 9.75043 -15.8049
ltibia 73.8084
lfoot 19.9625 -5.80493
ltoes 10.6916
714
root 16.7991 9.85444 -6.65731 -112.871 -86.5227 91.3512
lowerback 43.3169 3.76615 -2.20938
upperback 17.8257 0.816777 1.75152
thorax -0.526011 -1.11271 2.69683
lowerneck -13.7158 5.1625 -7.89421
upperneck 21.309 8.65047 0.184376
head 8.57922 3.34251 2.29762
rclavicle 3.97569e-016 5.96354e-015
rhumerus 27.6095 31.585 -60.9946
rradius 71.3307
rwrist 10.6741
rhand 0.582029 21.5751
rfingers 7.12502
rthumb 26.1477 -6.64436
lclavicle 3.97569e-016 5.96354e-015
lhumerus 32.2399 -23.5892 76.7055
lradius 55.3448
lwrist -28.1673
lhand 18.6743 29.5858
lfingers 7.12502
lthumb 43.2982 53.7256
rfemur -68.6397 -11.7486 14.5462
rtibia 73.5668
rfoot 19.6288 -1.56746
rtoes 24.8154
lfemur -68 9.79526 -15.668
ltibia 73.8323
lfoot 20.0309 -5.80399
ltoes 9.64551
715
root 16.7908 9.85524 -6.65551 -110.129 -86.3146 88.5735
lowerback 43.42 3.80301 -2.23034
upperback 17.8222 0.852791 1.7632
thorax -0.5591 -1.09516 2.70693
lowerneck -13.7616 5.74575 -7.93364
upperneck 20.8495 9.35446 0.687142
head 8.36547 3.75852 2.5262
rclavicle -4.77083e-015 1.31198e-014
rhumerus 27.4775 31.3258 -60.9056
rradius 71.4114
rwrist 10.3196
rhand 1.02999 21.978
rfingers 7.12502
rthumb 26.5766 -6.17725
lclavicle -4.77083e-015 1.31198e-014
lhumerus 32.2929 -23.7293 76.7724
lradius 55.3936
lwrist -28.0706
lhand 17.8426 28.8436
lfingers 7.12502
lthumb 42.5202 53.2569
rfemur -68.6059 -11.9334 14.2811
rtibia 73.6087
rfoot 19.6272 -1.13368
rtoes 23.8564
lfemur -67.9689 9.71271 -16.0235
ltibia 73.8599
lfoot 19.7416 -6.69138
ltoes 5.92094
